<svg id="logo" xmlns="http://www.w3.org/2000/svg" viewBox="0 0 56.61 59.95"><defs><style>.cls-1{fill:#fb288a;}.cls-2{fill:#2aa8e2;fill-rule:evenodd;}</style></defs><path class="cls-1" d="M170.19,47.08a15.93,15.93,0,0,0-15.26,2.3c-6.49,5.24-6.5,14-2.29,20.73a25.24,25.24,0,0,0,3,3.81h.08c2.39-.28,6.4,1.43,8.65,2.3A40.29,40.29,0,0,0,169.71,78a4.92,4.92,0,0,0,.67.1q-1-.53-2.07-1.11a29.92,29.92,0,0,1-10.59-9.7c-6.07-9.62,2.94-20.05,16.92-10.63C176,48.47,179.93,45.93,184,46c12.85.13,12.33,22.56,5.3,31,10.16-6.3,14.83-28.46,3.12-36.91a13.71,13.71,0,0,0-10.06-2.5,15.9,15.9,0,0,0-12.12,9.53Z" transform="translate(-143.89 -37.41)"/><path class="cls-2" d="M200.5,97.36c-.33-14.84-9.54-19.44-22-18.5-3.72.28-6.61,1.49-9.22.9-4.12-.93-10.61-4.4-13.38-4.08-4,.46-1.5,3-1.5,3s7.28,4.83,8.18,5.26,4.56,1.57,5.45,1.44c-.79.4-3.41-.09-5.9-.9a11.27,11.27,0,0,1-2.32-1.39c-3.56-2.33-6.16-3.32-7.08-4.94a1.7,1.7,0,0,1,.77-2.44,24.91,24.91,0,0,1-4.62-7.83c-1.39-3.43-4.22-3.87-5-2.84-.33.46.92,2.92,1.27,3.82,1.56,3.87,3.49,10.58,5.62,12.74,2.71,2.75,8.78,9.49,14.47,11.06C181.07,97,187,86.54,200.5,97.36Z" transform="translate(-143.89 -37.41)"/><path class="cls-1" d="M180.85,60.42a7.91,7.91,0,0,0-7.58,1.15C166.61,67,173.4,76.65,181.2,76c-.43-.21-.86-.44-1.28-.68a14.68,14.68,0,0,1-5.26-4.82c-3-4.79,1.46-10,8.41-5.29.67-4.08,2.64-5.35,4.63-5.33,6.4.07,6.14,11.23,2.64,15.42,5.06-3.14,7.38-14.16,1.55-18.36a6.83,6.83,0,0,0-5-1.25,8,8,0,0,0-6,4.74Z" transform="translate(-143.89 -37.41)"/></svg>